<svg width="514" height="264" viewBox="0 0 514 264" fill="none" xmlns="http://www.w3.org/2000/svg">
<path d="M481.417 3.5C497.121 3.5 509.853 16.2312 509.853 31.9355C509.852 42.6844 503.888 52.0366 495.089 56.8701C503.888 61.7039 509.853 71.0568 509.853 81.8057C509.853 92.4244 504.032 101.68 495.407 106.562C504.386 111.342 510.5 120.794 510.5 131.676C510.5 142.424 504.536 151.777 495.737 156.61C504.536 161.444 510.5 170.798 510.5 181.547C510.5 192.295 504.536 201.648 495.737 206.481C504.536 211.315 510.5 220.669 510.5 231.417C510.5 247.121 497.769 259.853 482.064 259.853C471.316 259.852 461.962 253.889 457.129 245.09C452.295 253.888 442.943 259.853 432.194 259.853C421.446 259.853 412.092 253.889 407.259 245.09C402.425 253.888 393.073 259.852 382.324 259.853C371.575 259.853 362.222 253.888 357.389 245.089C352.555 253.888 343.202 259.853 332.453 259.853C321.705 259.852 312.351 253.889 307.518 245.09C302.684 253.888 293.331 259.853 282.583 259.853C271.834 259.853 262.481 253.888 257.647 245.089C252.814 253.888 243.461 259.852 232.713 259.853C221.964 259.853 212.611 253.888 207.777 245.089C202.944 253.888 193.591 259.853 182.842 259.853C172.093 259.852 162.74 253.888 157.906 245.089C153.073 253.888 143.72 259.852 132.972 259.853C122.223 259.853 112.87 253.888 108.036 245.089C103.203 253.888 93.8494 259.853 83.1006 259.853C72.352 259.852 62.9995 253.888 58.166 245.089C53.3325 253.888 43.9793 259.853 33.2305 259.853C17.5262 259.852 4.79492 247.121 4.79492 231.417C4.79496 220.799 10.6152 211.543 19.2383 206.66C10.2604 201.88 4.14756 192.428 4.14746 181.547C4.14746 170.8 10.1097 161.446 18.9062 156.611C10.1097 151.776 4.14746 142.422 4.14746 131.676C4.1476 121.059 9.96672 111.802 18.5889 106.918C9.61199 102.137 3.5 92.686 3.5 81.8057C3.50001 70.9251 9.61176 61.4732 18.5889 56.6924C9.96695 51.8083 4.14758 42.5522 4.14746 31.9355C4.14746 16.2312 16.8787 3.5 32.583 3.5C43.3311 3.50004 52.6838 9.46355 57.5176 18.2617C62.3513 9.46333 71.7049 3.50009 82.4531 3.5C93.2017 3.5 102.555 9.46394 107.389 18.2627C112.222 9.46397 121.576 3.5 132.324 3.5C143.072 3.50014 152.425 9.46356 157.259 18.2617C162.093 9.46333 171.446 3.5 182.194 3.5C192.942 3.50001 202.295 9.46355 207.129 18.2617C211.963 9.46334 221.316 3.50012 232.064 3.5C242.813 3.5 252.166 9.46396 257 18.2627C261.834 9.46396 271.187 3.5 281.936 3.5C292.684 3.50011 302.036 9.46356 306.87 18.2617C311.704 9.46332 321.057 3.50002 331.806 3.5C342.554 3.5 351.906 9.46356 356.74 18.2617C361.574 9.46334 370.928 3.50015 381.676 3.5C392.424 3.5 401.778 9.46398 406.611 18.2627C411.445 9.46394 420.798 3.5 431.547 3.5C442.295 3.50008 451.648 9.46412 456.481 18.2627C461.315 9.46389 470.668 3.50005 481.417 3.5Z" fill="#FFEAD5" stroke="#683319" stroke-width="7"/>
</svg>
