<svg width="120" height="120" viewBox="0 0 120 120" fill="none" xmlns="http://www.w3.org/2000/svg">
<path d="M72.5 2.5V12.5H77.5V17.5H82.5V12.5H97.5V17.5H102.5V22.5H107.5V37.5H102.5V42.5H107.5V47.5H117.5V72.5H107.5V77.5H102.5V82.5H107.5V97.5H102.5V102.5H97.5V107.5H82.5V102.5H77.5V107.5H72.5V117.5H47.5V107.5H42.5V102.5H37.5V107.5H22.5V102.5H17.5V97.5H12.5V82.5H17.5V77.5H12.5V72.5H2.5V47.5H12.5V42.5H17.5V37.5H12.5V22.5H17.5V17.5H22.5V12.5H37.5V17.5H42.5V12.5H47.5V2.5H72.5ZM52.5 52.5H47.5V67.5H52.5V72.5H67.5V67.5H72.5V52.5H67.5V47.5H52.5V52.5Z" fill="#330F00" stroke="#FFFCF7" stroke-width="5"/>
</svg>
